<?xml version="1.0"?>
<svg width="40" height="34" xmlns="http://www.w3.org/2000/svg" xmlns:svg="http://www.w3.org/2000/svg">
 <defs>
  <clipPath id="clip0_18_118">
   <rect fill="white" height="34" id="svg_1" transform="translate(0.343262)" width="39.31"/>
  </clipPath>
 </defs>
 <g class="layer">
  <title>Layer 1</title>
  <g clip-path="url(#clip0_18_118)" id="svg_2">
   <path d="m35.99,34l-31.98,0c-2.02,0 -3.67,-1.64 -3.67,-3.66l0,-26.68c0,-2.02 1.65,-3.66 3.67,-3.66l31.98,0c2.02,0 3.67,1.64 3.67,3.66c0,0.59 -0.48,1.06 -1.06,1.07c-0.59,0 -1.06,-0.48 -1.07,-1.06c0,-0.85 -0.69,-1.54 -1.54,-1.54l-31.98,0c-0.86,0 -1.54,0.69 -1.55,1.54l0,26.67c0,0.85 0.69,1.54 1.55,1.54l31.98,0c0.85,0 1.54,-0.69 1.54,-1.54l0,-14.26c0,-0.59 0.48,-1.06 1.06,-1.07c0.58,0 1.06,0.48 1.07,1.06l0,14.26c0,2.03 -1.65,3.67 -3.67,3.67z" fill="#1D1D1D" id="svg_3"/>
   <path d="m1.4,3.66l0,5.37l37.19,0l0,-5.37c0,-1.43 -1.17,-2.6 -2.6,-2.6l-31.98,0c-1.44,0 -2.61,1.17 -2.61,2.6z" fill="#ff6f58" id="svg_4"/>
   <path d="m38.6,10.1l-37.2,0c-0.58,0 -1.06,-0.48 -1.06,-1.06l0,-5.38c0,-2.02 1.65,-3.66 3.67,-3.66l31.98,0c2.02,0 3.67,1.64 3.67,3.66l0,5.37c0,0.59 -0.48,1.07 -1.06,1.07zm-36.13,-2.13l35.06,0l0,-4.3c0,-0.85 -0.69,-1.54 -1.54,-1.54l-31.98,0c-0.85,0 -1.53,0.69 -1.54,1.53l0,4.31z" fill="#1D1D1D" id="svg_5"/>
   <path d="m22.97,6.11l-2.02,0c-0.58,0 -1.06,-0.47 -1.06,-1.06c0,-0.58 0.48,-1.06 1.06,-1.06l2.02,0c0.59,0 1.06,0.48 1.06,1.06c0.01,0.59 -0.47,1.06 -1.06,1.06z" fill="#1D1D1D" id="svg_6"/>
   <path d="m28.61,6.11l-2.02,0c-0.59,0 -1.06,-0.47 -1.06,-1.06c0,-0.58 0.47,-1.06 1.06,-1.06l2.02,0c0.58,0 1.06,0.48 1.06,1.06c0,0.59 -0.48,1.06 -1.06,1.06z" fill="#1D1D1D" id="svg_7"/>
   <path d="m34.24,6.11l-2.02,0c-0.59,0 -1.06,-0.47 -1.06,-1.06c0,-0.58 0.47,-1.06 1.06,-1.06l2.02,0c0.58,0 1.06,0.48 1.06,1.06c0,0.59 -0.47,1.06 -1.06,1.06z" fill="#1D1D1D" id="svg_8"/>
   <path d="m31,20.62l-22,0l0,4.88l22,0l0,-4.88z" fill="#ff6f58" id="svg_9"/>
   <path d="m31,26.56l-22,0c-0.58,0 -1.06,-0.48 -1.06,-1.06l0,-4.89c0,-0.58 0.48,-1.06 1.06,-1.06l22,0c0.58,0 1.06,0.48 1.06,1.06l0,4.89c0,0.58 -0.47,1.06 -1.06,1.06zm-20.94,-2.12l19.88,0l0,-2.76l-19.88,0l0,2.76z" fill="#1D1D1D" id="svg_10"/>
   <path d="m27.79,17.11l-15.58,0c-0.59,0.01 -1.08,-0.45 -1.09,-1.04c-0.02,-0.59 0.44,-1.07 1.03,-1.09c0.02,0 0.04,0 0.06,0l15.59,0c0.58,-0.01 1.08,0.45 1.09,1.04c0.02,0.59 -0.44,1.07 -1.04,1.09c-0.02,0 -0.03,0 -0.06,0z" fill="#1D1D1D" id="svg_11"/>
  </g>
 </g>
</svg>