<?xml version="1.0"?>
<svg width="36" height="34" xmlns="http://www.w3.org/2000/svg" xmlns:svg="http://www.w3.org/2000/svg">
 <defs>
  <clipPath id="clip0_18_185">
   <rect fill="white" height="34" id="svg_1" transform="translate(0.996704)" width="34.01"/>
  </clipPath>
 </defs>
 <g class="layer">
  <title>Layer 1</title>
  <g clip-path="url(#clip0_18_185)" id="svg_2">
   <path d="m20.74,28.55c-7.88,0 -14.28,-6.39 -14.28,-14.28c0,-5.32 2.96,-10.19 7.67,-12.66c6.99,-3.63 15.62,-0.91 19.26,6.07c0.26,0.53 0.05,1.17 -0.47,1.44c-0.52,0.26 -1.15,0.06 -1.43,-0.45c-3.1,-5.93 -10.43,-8.24 -16.37,-5.16c-5.93,3.11 -8.23,10.42 -5.14,16.36c3.1,5.94 10.42,8.24 16.36,5.14c4.1,-2.14 6.63,-6.43 6.51,-11.05c-0.01,-0.59 0.46,-1.08 1.05,-1.09c0.59,-0.01 1.08,0.45 1.09,1.04c0.19,7.9 -6.05,14.45 -13.94,14.64c-0.09,0 -0.2,0 -0.31,0z" fill="#1D1D1D" id="svg_3"/>
   <path d="m20.73,21.65c4.08,0 7.38,-3.3 7.38,-7.38c0,-4.07 -3.3,-7.38 -7.38,-7.38c-4.08,0 -7.38,3.31 -7.38,7.38c0,4.08 3.3,7.38 7.38,7.38z" fill="#ff6f58" id="svg_4"/>
   <path d="m20.73,22.72c-4.67,0 -8.45,-3.78 -8.45,-8.45c0,-4.66 3.79,-8.45 8.45,-8.45c4.66,0 8.45,3.79 8.45,8.45c-0.01,4.67 -3.79,8.45 -8.45,8.45zm0,-14.76c-3.49,0 -6.31,2.83 -6.31,6.31c0,3.49 2.82,6.31 6.31,6.31c3.49,0 6.31,-2.82 6.31,-6.31c-0.01,-3.48 -2.83,-6.31 -6.31,-6.31z" fill="#1D1D1D" id="svg_5"/>
   <path d="m4.75,34c-2.07,0 -3.75,-1.68 -3.75,-3.75c0,-1.17 0.54,-2.27 1.47,-2.98l4.39,-3.36c0.43,-0.32 1.03,-0.28 1.41,0.09l2.73,2.73c0.38,0.38 0.42,0.99 0.09,1.41l-3.35,4.39c-0.66,0.86 -1.66,1.4 -2.74,1.47c-0.08,0 -0.16,0 -0.25,0zm2.66,-7.82l-3.64,2.79c-0.71,0.53 -0.86,1.54 -0.32,2.25c0.54,0.71 1.55,0.86 2.26,0.32c0.12,-0.09 0.22,-0.2 0.31,-0.32l2.79,-3.64l-1.4,-1.4z" fill="#1D1D1D" id="svg_6"/>
  </g>
 </g>
</svg>