<?xml version="1.0"?>
<svg width="42" height="34" xmlns="http://www.w3.org/2000/svg" xmlns:svg="http://www.w3.org/2000/svg">
 <defs>
  <clipPath id="clip0_18_128">
   <rect fill="white" height="34" id="svg_1" transform="translate(0.0706177)" width="41.86"/>
  </clipPath>
 </defs>
 <g class="layer">
  <title>Layer 1</title>
  <g clip-path="url(#clip0_18_128)" id="svg_2">
   <path d="m35.93,5.54l-29.86,0c-0.63,0.02 -1.17,-0.48 -1.18,-1.11c-0.01,-0.64 0.47,-1.17 1.11,-1.19c0.02,0 0.04,0 0.07,0l29.86,0c0.63,-0.02 1.17,0.48 1.18,1.11c0.01,0.64 -0.48,1.17 -1.12,1.18c-0.02,0.01 -0.04,0.01 -0.06,0.01z" fill="#1D1D1D" id="svg_3"/>
   <path d="m24.58,33.61c-0.64,0 -1.15,-0.51 -1.15,-1.14c0,-0.13 0.02,-0.25 0.06,-0.37c0.29,-0.85 1.66,-4.84 2.62,-6.5c-0.97,-1.03 -3.78,-4.12 -5.1,-6.76c-1.24,2.4 -4.04,5.56 -5.12,6.75c1.03,1.69 2.32,5.61 2.6,6.5c0.04,0.12 0.06,0.24 0.06,0.38c0,0.63 -0.51,1.14 -1.15,1.14c-0.5,0 -0.95,-0.33 -1.09,-0.81l0,-0.01c-0.68,-2.11 -1.88,-5.4 -2.48,-6.16c-0.49,-0.62 -0.35,-1.48 -0.09,-2.02c0.06,-0.09 0.12,-0.19 0.19,-0.27c2.1,-2.28 5.18,-6.07 5.38,-7.4c0.07,-0.37 0.34,-1.03 1.52,-1.09c1.27,-0.07 1.69,0.49 1.82,0.96c0.58,2.2 4.08,6.16 5.38,7.5c0.08,0.08 0.15,0.19 0.21,0.29c0.26,0.52 0.4,1.36 -0.06,1.99c-0.58,0.79 -1.86,4.25 -2.53,6.24c-0.13,0.48 -0.57,0.79 -1.07,0.78z" fill="#1D1D1D" id="svg_4"/>
   <path d="m21,26.05c-0.63,0 -1.14,-0.51 -1.14,-1.15l0,-7.83c0.03,-0.64 0.57,-1.12 1.2,-1.09c0.58,0.03 1.05,0.5 1.08,1.09l0,7.83c0,0.64 -0.51,1.15 -1.14,1.15z" fill="#1D1D1D" id="svg_5"/>
   <path d="m37.53,25c-0.63,0 -1.14,-0.51 -1.14,-1.15l0,-2.92c0,-8.49 -6.91,-15.39 -15.39,-15.39c-8.48,0 -15.39,6.9 -15.39,15.39l0,2.92c-0.02,0.64 -0.55,1.14 -1.18,1.12c-0.6,-0.02 -1.09,-0.5 -1.11,-1.12l0,-2.92c-0.01,-9.76 7.89,-17.67 17.65,-17.68c4.7,0 9.21,1.86 12.53,5.19c3.33,3.3 5.2,7.8 5.2,12.49l0,2.92c-0.01,0.64 -0.53,1.15 -1.17,1.15z" fill="#1D1D1D" id="svg_6"/>
   <path d="m22.55,7.63l-3.1,0c-0.93,0 -1.69,-0.75 -1.69,-1.68l0,-3.12c0,-0.93 0.76,-1.69 1.69,-1.69l3.1,0c0.93,0 1.69,0.76 1.69,1.69l0,3.12c0,0.93 -0.76,1.68 -1.69,1.68z" fill="#ff6f58" id="svg_7"/>
   <path d="m22.55,8.78l-3.1,0c-1.57,0 -2.83,-1.27 -2.83,-2.83l0,-3.12c0,-1.56 1.26,-2.83 2.83,-2.83l3.1,0c1.57,0 2.83,1.27 2.83,2.83l0,3.12c0,1.56 -1.26,2.83 -2.83,2.83zm-3.1,-6.49c-0.3,0 -0.54,0.24 -0.54,0.54l0,3.12c0,0.29 0.24,0.54 0.54,0.54l3.1,0c0.3,0 0.54,-0.25 0.54,-0.54l0,-3.12c0,-0.3 -0.24,-0.54 -0.54,-0.54l-3.1,0z" fill="#1D1D1D" id="svg_8"/>
   <path d="m39.1,28.14l-3.12,0c-0.93,0 -1.68,-0.75 -1.68,-1.68l0,-3.12c0,-0.93 0.75,-1.68 1.68,-1.68l3.12,0c0.93,0 1.68,0.75 1.68,1.68l0,3.12c0,0.93 -0.75,1.68 -1.68,1.68z" fill="#ff6f58" id="svg_9"/>
   <path d="m39.1,29.29l-3.12,0c-1.56,0 -2.83,-1.27 -2.83,-2.83l0,-3.12c0,-1.56 1.27,-2.83 2.83,-2.83l3.12,0c1.56,0 2.83,1.27 2.83,2.83l0,3.12c0,1.56 -1.27,2.83 -2.83,2.83zm-3.12,-6.48c-0.29,0 -0.54,0.25 -0.54,0.54l0,3.12c0,0.29 0.25,0.54 0.54,0.54l3.12,0c0.29,0 0.54,-0.25 0.54,-0.54l0,-3.12c0,-0.29 -0.25,-0.54 -0.54,-0.54l-3.12,0z" fill="#1D1D1D" id="svg_10"/>
   <path d="m6.02,28.14l-3.12,0c-0.93,0 -1.68,-0.75 -1.68,-1.68l0,-3.12c0,-0.93 0.75,-1.68 1.68,-1.68l3.12,0c0.93,0 1.68,0.75 1.68,1.68l0,3.13c0,0.93 -0.75,1.68 -1.68,1.67z" fill="#ff6f58" id="svg_11"/>
   <path d="m6.02,29.29l-3.12,0c-1.56,0 -2.83,-1.27 -2.83,-2.83l0,-3.12c0,-1.56 1.27,-2.83 2.83,-2.83l3.12,0c1.56,0 2.83,1.27 2.83,2.83l0,3.12c0,1.56 -1.27,2.83 -2.83,2.83zm-3.12,-6.48c-0.29,0 -0.54,0.25 -0.54,0.54l0,3.12c0,0.29 0.25,0.54 0.54,0.54l3.12,0c0.29,0 0.54,-0.25 0.54,-0.54l0,-3.12c0,-0.29 -0.25,-0.54 -0.54,-0.54l-3.12,0z" fill="#1D1D1D" id="svg_12"/>
   <path d="m26.83,34l-11.66,0c-0.63,0 -1.14,-0.51 -1.14,-1.14c0,-0.64 0.51,-1.15 1.14,-1.15l11.66,0c0.63,0 1.14,0.51 1.14,1.15c0,0.63 -0.51,1.14 -1.14,1.14z" fill="#1D1D1D" id="svg_13"/>
  </g>
 </g>
</svg>