<?xml version="1.0"?>
<svg width="34" height="34" xmlns="http://www.w3.org/2000/svg" xmlns:svg="http://www.w3.org/2000/svg">
 <g class="layer">
  <title>Layer 1</title>
  <path d="m17.28,1.01l0,4.32c-1.91,-1.03 -4.3,-0.33 -5.33,1.58c-1.04,1.92 -0.34,4.3 1.58,5.34c1.17,0.63 2.58,0.63 3.76,0l0,4.32l3.97,0c-0.55,-2.1 0.7,-4.25 2.8,-4.81c2.1,-0.56 4.25,0.7 4.81,2.8c0.56,2.1 0.17,1.35 0,2.01l3.97,0l0,-11.88c0,-2.03 -1.65,-3.68 -3.68,-3.68l-11.88,0z" fill="#ff6f58" id="svg_1"/>
  <path d="m29.15,0l-24.3,0c-2.59,0 -4.7,2.11 -4.7,4.69l0,24.62c0,2.58 2.11,4.69 4.7,4.69l12.49,0c0.56,0 1.01,-0.45 1.01,-1l0,-2.92c0.36,0.07 0.74,0.09 1.11,0.07c1.17,-0.06 2.27,-0.53 3.13,-1.32c2,-1.86 2.11,-4.99 0.25,-6.99c-1.54,-1.65 -4,-2.04 -5.98,-0.97c-0.48,0.27 -0.67,0.88 -0.4,1.37c0.26,0.49 0.87,0.67 1.36,0.4c0.49,-0.26 1.05,-0.38 1.6,-0.34c1.62,0.11 2.83,1.51 2.72,3.12c-0.1,1.45 -1.31,2.64 -2.77,2.71c-0.54,0.03 -1.07,-0.09 -1.54,-0.35c-0.15,-0.08 -0.31,-0.12 -0.48,-0.12c-0.56,0 -1.01,0.45 -1.01,1.01l0,3.31l-11.49,0c-1.48,0 -2.68,-1.2 -2.68,-2.67l0,-11.74l1.91,0c-0.04,0.17 -0.06,0.35 -0.07,0.52c-0.19,2.72 1.86,5.09 4.58,5.28c0.12,0.01 0.24,0.01 0.35,0.01c1.25,0.01 2.46,-0.47 3.37,-1.33c1.65,-1.54 2.05,-3.99 0.97,-5.97c-0.01,-0.01 -0.01,-0.02 -0.02,-0.03c-0.27,-0.48 -0.89,-0.66 -1.37,-0.38c-0.49,0.27 -0.66,0.89 -0.38,1.38c0.26,0.49 0.38,1.05 0.34,1.6c-0.11,1.62 -1.51,2.83 -3.12,2.71c-1.45,-0.1 -2.65,-1.31 -2.71,-2.77c-0.03,-0.53 0.09,-1.07 0.34,-1.54c0.08,-0.15 0.13,-0.32 0.13,-0.49c0,-0.56 -0.45,-1.01 -1.01,-1.01l-3.31,0l0,-10.86c0,-1.48 1.2,-2.67 2.68,-2.67l11.42,0l0,1.9c-0.58,-0.1 -1.17,-0.1 -1.74,0c-2.69,0.48 -4.48,3.05 -3.99,5.74c0.48,2.69 3.05,4.48 5.74,3.99l0,2.92c0,0.56 0.45,1.01 1.01,1.01l3.97,0c0.11,0 0.22,-0.02 0.32,-0.05c0.53,-0.17 0.81,-0.74 0.64,-1.27c-0.04,-0.17 -0.07,-0.34 -0.08,-0.52c-0.1,-1.61 1.12,-3 2.74,-3.1c0.06,0 0.12,0 0.18,0c0.25,0 0.5,0.03 0.75,0.1c1.56,0.41 2.49,2.02 2.07,3.58c-0.02,0.08 -0.03,0.17 -0.03,0.26c0,0.55 0.45,1 1.01,1l3.98,0c0.56,0 1.01,-0.45 1.01,-1l0,-11.89c-0.01,-2.58 -2.11,-4.69 -4.7,-4.69zm2.68,15.55l-1.83,0c0,-2.73 -2.21,-4.94 -4.94,-4.94c-0.1,0 -0.2,0 -0.3,0.01c-2.39,0.14 -4.38,2.05 -4.62,4.43c-0.01,0.17 -0.03,0.34 -0.03,0.5l-1.82,0l0,-3.31c0,-0.17 -0.04,-0.33 -0.12,-0.49c-0.27,-0.49 -0.88,-0.67 -1.37,-0.4c-0.49,0.26 -1.04,0.38 -1.6,0.34c-1.61,-0.11 -2.83,-1.51 -2.72,-3.12c0.1,-1.44 1.32,-2.64 2.77,-2.71c0.54,-0.02 1.07,0.1 1.54,0.36c0.15,0.08 0.32,0.12 0.49,0.12c0.56,0 1.01,-0.46 1.01,-1.01l0,-3.31l10.86,0c1.48,0 2.68,1.2 2.68,2.67l0,10.86z" fill="#1D1D1D" id="svg_2"/>
 </g>
</svg>